<svg xmlns="http://www.w3.org/2000/svg" viewBox="-60 -960 4248 1230"><defs><linearGradient id="imgradd" x1="0" y1="1" x2="1" y2="0"><stop offset="0" stop-color="#FF6A3D"/><stop offset=".52" stop-color="#FF3D8A"/><stop offset="1" stop-color="#8A63FF"/></linearGradient></defs><path fill="#F6F0E7" d="M43.71405029296875 0.0V-528.0H205.4283447265625V0.0Z M262.71405029296875 0.0V-306.99957275390625V-528.0H396.5712890625L397.1427001953125 -330.42803955078125H408.85687255859375Q417.8568115234375 -406.7139892578125 439.0710754394531 -452.99981689453125Q460.28533935546875 -499.28564453125 494.3567810058594 -520.642822265625Q528.42822265625 -542.0 575.285400390625 -542.0Q624.142578125 -542.0 654.9997253417969 -518.9285278320312Q685.8568725585938 -495.8570556640625 701.7139892578125 -449.2140808105469Q717.5711059570312 -402.57110595703125 718.571044921875 -330.42803955078125H729.1423950195312Q738.7137451171875 -406.57110595703125 761.9994201660156 -452.85693359375Q785.2850952148438 -499.14276123046875 821.2850952148438 -520.5713806152344Q857.2850952148438 -542.0 904.28515625 -542.0Q946.427978515625 -542.0 977.4279479980469 -526.2857360839844Q1008.4279174804688 -510.57147216796875 1029.4993286132812 -479.2857971191406Q1050.5707397460938 -448.0001220703125 1060.8564453125 -400.6430358886719Q1071.1421508789062 -353.28594970703125 1071.1421508789062 -290.2860107421875V0.0H909.1421508789062V-274.57177734375Q909.1421508789062 -316.85736083984375 902.0707397460938 -345.21441650390625Q894.9993286132812 -373.57147216796875 880.57080078125 -387.5Q866.1422729492188 -401.42852783203125 843.5709228515625 -401.42852783203125Q815.856689453125 -401.42852783203125 793.7138366699219 -378.6427917480469Q771.5709838867188 -355.8570556640625 758.4995422363281 -311.714111328125Q745.4281005859375 -267.5711669921875 745.4281005859375 -202.71380615234375V0.0H587.4281005859375V-276.57183837890625Q587.4281005859375 -319.4288330078125 580.0709838867188 -346.7144470214844Q572.7138671875 -374.00006103515625 557.7853393554688 -387.71429443359375Q542.8568115234375 -401.42852783203125 520.5711669921875 -401.42852783203125Q493.57122802734375 -401.42852783203125 471.9283752441406 -380.7856750488281Q450.2855224609375 -360.142822265625 437.35693359375 -315.9998779296875Q424.4283447265625 -271.85693359375 424.4283447265625 -202.71380615234375V0.0Z M1257.1427612304688 14.0Q1215.9999389648438 14.0 1180.5713500976562 -0.999969482421875Q1145.1427612304688 -15.99993896484375 1123.2855834960938 -48.07135009765625Q1101.4284057617188 -80.14276123046875 1101.4284057617188 -131.7142333984375Q1101.4284057617188 -179.5714111328125 1119.9998474121094 -209.78570556640625Q1138.5712890625 -240.0 1170.9998474121094 -258.21429443359375Q1203.4284057617188 -276.4285888671875 1244.1426086425781 -286.5Q1284.8568115234375 -296.5714111328125 1328.4280395507812 -304.142822265625Q1373.8568115234375 -312.71429443359375 1397.9997253417969 -318.2857360839844Q1422.1426391601562 -323.857177734375 1431.7854919433594 -332.4285888671875Q1441.4283447265625 -341.0 1441.4283447265625 -356.42852783203125Q1441.4283447265625 -384.28570556640625 1420.9283142089844 -400.142822265625Q1400.4282836914062 -415.99993896484375 1363.999755859375 -415.99993896484375Q1340.2855224609375 -415.99993896484375 1317.9998168945312 -407.42852783203125Q1295.714111328125 -398.85711669921875 1281.1427001953125 -378.7856750488281Q1266.5712890625 -358.7142333984375 1264.9999389648438 -323.85699462890625L1121.5713500976562 -343.2852783203125Q1124.1426391601562 -400.28546142578125 1145.8569030761719 -438.6427001953125Q1167.5711669921875 -476.99993896484375 1203.0711975097656 -499.642822265625Q1238.5712280273438 -522.2857055664062 1281.6426696777344 -532.1428527832031Q1324.714111328125 -542.0 1369.4283447265625 -542.0Q1448.7140502929688 -542.0 1499.5711975097656 -513.642822265625Q1550.4283447265625 -485.28564453125 1574.9283447265625 -430.3570556640625Q1599.4283447265625 -375.428466796875 1599.4283447265625 -294.99993896484375V-204.714111328125Q1599.4283447265625 -170.85699462890625 1599.8569030761719 -136.4998779296875Q1600.2854614257812 -102.14276123046875 1600.9997253417969 -68.14279174804688Q1601.7139892578125 -34.142822265625 1602.8568115234375 0.0H1462.285400390625Q1461.142578125 -32.28582763671875 1459.999755859375 -67.8572998046875Q1458.85693359375 -103.42877197265625 1458.2855224609375 -142.4288330078125H1448.28564453125Q1441.4285888671875 -99.42877197265625 1415.6428833007812 -63.785858154296875Q1389.857177734375 -28.1429443359375 1349.5 -7.07147216796875Q1309.142822265625 14.0 1257.1427612304688 14.0ZM1325.8569946289062 -102.857177734375Q1343.1427001953125 -102.857177734375 1362.3569946289062 -109.357177734375Q1381.5712890625 -115.857177734375 1398.9284362792969 -129.85720825195312Q1416.2855834960938 -143.85723876953125 1428.1427001953125 -167.50018310546875Q1439.9998168945312 -191.14312744140625 1442.2854614257812 -224.7147216796875L1441.7140502929688 -264.7142333984375L1466.9998168945312 -265.4285888671875Q1455.8570556640625 -252.71429443359375 1436.0713806152344 -245.0Q1416.2857055664062 -237.28570556640625 1393.1428527832031 -232.92855834960938Q1370.0 -228.5714111328125 1346.7857055664062 -224.0714111328125Q1323.5714111328125 -219.5714111328125 1304.2856750488281 -212.21426391601562Q1284.9999389648438 -204.85711669921875 1273.2142028808594 -192.49996948242188Q1261.428466796875 -180.142822265625 1261.428466796875 -158.42852783203125Q1261.428466796875 -131.85711669921875 1280.0713195800781 -117.35714721679688Q1298.7141723632812 -102.857177734375 1325.8569946289062 -102.857177734375Z M1860.8568725585938 165.999755859375Q1772.142578125 165.999755859375 1718.8569030761719 152.14260864257812Q1665.5712280273438 138.28546142578125 1642.2855529785156 113.21405029296875Q1618.9998779296875 88.14263916015625 1618.9998779296875 54.1427001953125Q1618.9998779296875 9.5712890625 1654.4284362792969 -17.642974853515625Q1689.8569946289062 -44.85723876953125 1757.9998168945312 -53.14300537109375V-62.71429443359375Q1705.8569946289062 -62.71429443359375 1676.7141418457031 -78.35720825195312Q1647.5712890625 -94.0001220703125 1647.5712890625 -124.71441650390625Q1647.5712890625 -153.4287109375 1674.7855529785156 -176.4287109375Q1701.9998168945312 -199.4287109375 1764.2854614257812 -203.14288330078125V-214.14276123046875Q1707.9998168945312 -224.85711669921875 1674.8569946289062 -261.4285583496094Q1641.7141723632812 -298.0 1641.7141723632812 -356.71429443359375Q1641.7141723632812 -407.857177734375 1668.6427307128906 -446.5714416503906Q1695.5712890625 -485.28570556640625 1748.1426696777344 -507.642822265625Q1800.7140502929688 -529.9999389648438 1876.8568115234375 -529.9999389648438H2142.9995727539062V-406.8570556640625L1965.9994506835938 -429.57135009765625V-417.00006103515625Q2043.8567504882812 -406.57147216796875 2072.928192138672 -381.6428527832031Q2101.9996337890625 -356.7142333984375 2101.9996337890625 -319.42852783203125Q2101.9996337890625 -281.5714111328125 2078.0711059570312 -252.0Q2054.142578125 -222.4285888671875 2006.2854614257812 -205.64288330078125Q1958.4283447265625 -188.857177734375 1887.2854614257812 -188.857177734375Q1868.1425170898438 -188.857177734375 1847.9281616210938 -190.57147216796875Q1827.7138061523438 -192.2857666015625 1805.142578125 -196.2857666015625Q1788.4282836914062 -187.28582763671875 1779.0711364746094 -179.21441650390625Q1769.7139892578125 -171.14300537109375 1769.7139892578125 -163.14300537109375Q1769.7139892578125 -157.8572998046875 1773.9996948242188 -154.92874145507812Q1778.285400390625 -152.00018310546875 1786.3568115234375 -150.7144775390625Q1794.42822265625 -149.42877197265625 1804.7139282226562 -149.42877197265625H1964.9996337890625Q1985.7139282226562 -149.42877197265625 2017.4996337890625 -146.92877197265625Q2049.2853393554688 -144.42877197265625 2081.071044921875 -131.78591918945312Q2112.8567504882812 -119.14306640625 2134.2853088378906 -90.14306640625Q2155.7138671875 -61.14306640625 2155.7138671875 -7.85736083984375Q2155.7138671875 51.85693359375 2123.7853088378906 90.28549194335938Q2091.8567504882812 128.71405029296875 2026.7139282226562 147.35690307617188Q1961.5711059570312 165.999755859375 1860.8568725585938 165.999755859375ZM1866.856689453125 27.9996337890625Q1931.2853393554688 27.9996337890625 1963.2853393554688 23.071075439453125Q1995.2853393554688 18.14251708984375 2005.9996032714844 8.7139892578125Q2016.7138671875 -0.71453857421875 2016.7138671875 -13.57159423828125Q2016.7138671875 -28.71441650390625 2008.9995727539062 -37.428680419921875Q2001.2852783203125 -46.1429443359375 1989.5709838867188 -49.785797119140625Q1977.856689453125 -53.42864990234375 1966.356689453125 -54.071502685546875Q1954.856689453125 -54.71435546875 1947.5709838867188 -54.71435546875H1814.2852172851562Q1780.856689453125 -46.85711669921875 1767.6424560546875 -35.07147216796875Q1754.42822265625 -23.28582763671875 1754.42822265625 -7.85736083984375Q1754.42822265625 7.5711669921875 1767.4996643066406 15.2139892578125Q1780.5711059570312 22.8568115234375 1805.6425170898438 25.42822265625Q1830.7139282226562 27.9996337890625 1866.856689453125 27.9996337890625ZM1876.999755859375 -274.571533203125Q1912.1425170898438 -274.571533203125 1930.7853393554688 -295.42864990234375Q1949.4281616210938 -316.2857666015625 1949.4281616210938 -351.2857666015625Q1949.4281616210938 -387.14288330078125 1930.2853393554688 -409.5Q1911.1425170898438 -431.85711669921875 1876.5711669921875 -431.85711669921875Q1842.4284057617188 -431.85711669921875 1822.6427307128906 -409.5Q1802.8570556640625 -387.14288330078125 1802.8570556640625 -351.2857666015625Q1802.8570556640625 -328.2857666015625 1811.428466796875 -310.8572082519531Q1819.9998779296875 -293.42864990234375 1836.6427001953125 -284.0000915527344Q1853.2855224609375 -274.571533203125 1876.999755859375 -274.571533203125Z M2437.7140502929688 14.0Q2365.285400390625 14.0 2314.3568420410156 -6.357177734375Q2263.4282836914062 -26.71435546875 2230.856903076172 -63.214385986328125Q2198.2855224609375 -99.71441650390625 2183.0712890625 -148.28582763671875Q2167.8570556640625 -196.85723876953125 2167.8570556640625 -253.28570556640625Q2167.8570556640625 -311.99993896484375 2183.4998779296875 -364.28564453125Q2199.1427001953125 -416.57135009765625 2230.9283752441406 -456.49993896484375Q2262.7140502929688 -496.42852783203125 2311.7854614257812 -519.2142639160156Q2360.8568725585938 -542.0 2427.4283447265625 -542.0Q2493.9998168945312 -542.0 2542.4998168945312 -519.3571166992188Q2590.9998168945312 -496.7142333984375 2620.85693359375 -455.28564453125Q2650.7140502929688 -413.8570556640625 2661.0711364746094 -358.1427917480469Q2671.42822265625 -302.42852783203125 2662.1424560546875 -235.57147216796875L2270.2855834960938 -230.4285888671875V-317.2857666015625L2547.5707397460938 -321.71435546875L2515.9996337890625 -274.142822265625Q2522.2853393554688 -321.28564453125 2513.2139587402344 -352.78564453125Q2504.142578125 -384.28564453125 2482.7140502929688 -400.2142333984375Q2461.2855224609375 -416.142822265625 2427.999755859375 -416.142822265625Q2391.5711669921875 -416.142822265625 2368.1426391601562 -397.142822265625Q2344.714111328125 -378.142822265625 2333.9998779296875 -343.2142639160156Q2323.28564453125 -308.28570556640625 2323.28564453125 -259.857177734375Q2323.28564453125 -178.57147216796875 2352.8569946289062 -141.57147216796875Q2382.4283447265625 -104.57147216796875 2438.1426391601562 -104.57147216796875Q2462.999755859375 -104.57147216796875 2479.5711669921875 -111.00003051757812Q2496.142578125 -117.4285888671875 2506.5711364746094 -128.9285888671875Q2516.9996948242188 -140.4285888671875 2521.7139587402344 -156.21432495117188Q2526.42822265625 -172.00006103515625 2526.8567504882812 -190.71441650390625L2672.5711059570312 -176.1431884765625Q2672.4283447265625 -142.0003662109375 2660.4998474121094 -108.42889404296875Q2648.5713500976562 -74.857421875 2621.5713806152344 -47.285919189453125Q2594.5714111328125 -19.71441650390625 2549.4999389648438 -2.857208251953125Q2504.428466796875 14.0 2437.7140502929688 14.0Z M2708.7140502929688 0.0V-304.42840576171875V-528.0H2843.4284057617188L2843.9998168945312 -330.42803955078125H2855.7139892578125Q2863.7139282226562 -402.14251708984375 2884.8567504882812 -448.9283447265625Q2905.9995727539062 -495.71417236328125 2942.9995727539062 -518.8570861816406Q2979.9995727539062 -542.0 3034.9996337890625 -542.0Q3122.9995727539062 -542.0 3167.9281005859375 -482.71435546875Q3212.8566284179688 -423.4287109375 3212.8566284179688 -301.8575439453125V0.0H3050.8566284179688V-281.71466064453125Q3050.8566284179688 -344.0001220703125 3032.356689453125 -374.0000305175781Q3013.8567504882812 -403.99993896484375 2974.9996948242188 -403.99993896484375Q2942.7140502929688 -403.99993896484375 2919.2854919433594 -382.42852783203125Q2895.85693359375 -360.85711669921875 2883.1426391601562 -316.428466796875Q2870.4283447265625 -271.99981689453125 2870.4283447265625 -202.4281005859375V0.0Z M3474.2855224609375 12.28570556640625Q3380.9998168945312 12.28570556640625 3336.0712280273438 -35.78570556640625Q3291.1426391601562 -83.85711669921875 3291.1426391601562 -186.428466796875V-402.0H3227.9999389648438L3228.8570556640625 -510.85693359375H3246.7137451171875Q3300.142578125 -516.5712890625 3323.2855224609375 -542.9286499023438Q3346.428466796875 -569.2860107421875 3351.8570556640625 -624.7149658203125L3355.85693359375 -647.857177734375H3449.4284057617188V-528.0H3572.4283447265625V-397.71429443359375H3449.4284057617188V-199.142822265625Q3449.4284057617188 -162.28564453125 3467.3569946289062 -146.28564453125Q3485.2855834960938 -130.28564453125 3514.5712280273438 -130.28564453125Q3529.999755859375 -130.28564453125 3545.5711669921875 -134.28564453125Q3561.142578125 -138.28564453125 3573.5711669921875 -145.28564453125V-2.0Q3542.2854614257812 7.28570556640625 3517.5711975097656 9.78570556640625Q3492.85693359375 12.28570556640625 3474.2855224609375 12.28570556640625Z M3748.1427612304688 14.0Q3706.9999389648438 14.0 3671.5713500976562 -0.999969482421875Q3636.1427612304688 -15.99993896484375 3614.2855834960938 -48.07135009765625Q3592.4284057617188 -80.14276123046875 3592.4284057617188 -131.7142333984375Q3592.4284057617188 -179.5714111328125 3610.9998474121094 -209.78570556640625Q3629.5712890625 -240.0 3661.9998474121094 -258.21429443359375Q3694.4284057617188 -276.4285888671875 3735.142608642578 -286.5Q3775.8568115234375 -296.5714111328125 3819.4280395507812 -304.142822265625Q3864.8568115234375 -312.71429443359375 3888.999725341797 -318.2857360839844Q3913.1426391601562 -323.857177734375 3922.7854919433594 -332.4285888671875Q3932.4283447265625 -341.0 3932.4283447265625 -356.42852783203125Q3932.4283447265625 -384.28570556640625 3911.9283142089844 -400.142822265625Q3891.4282836914062 -415.99993896484375 3854.999755859375 -415.99993896484375Q3831.2855224609375 -415.99993896484375 3808.9998168945312 -407.42852783203125Q3786.714111328125 -398.85711669921875 3772.1427001953125 -378.7856750488281Q3757.5712890625 -358.7142333984375 3755.9999389648438 -323.85699462890625L3612.5713500976562 -343.2852783203125Q3615.1426391601562 -400.28546142578125 3636.856903076172 -438.6427001953125Q3658.5711669921875 -476.99993896484375 3694.0711975097656 -499.642822265625Q3729.5712280273438 -522.2857055664062 3772.6426696777344 -532.1428527832031Q3815.714111328125 -542.0 3860.4283447265625 -542.0Q3939.7140502929688 -542.0 3990.5711975097656 -513.642822265625Q4041.4283447265625 -485.28564453125 4065.9283447265625 -430.3570556640625Q4090.4283447265625 -375.428466796875 4090.4283447265625 -294.99993896484375V-204.714111328125Q4090.4283447265625 -170.85699462890625 4090.856903076172 -136.4998779296875Q4091.2854614257812 -102.14276123046875 4091.999725341797 -68.14279174804688Q4092.7139892578125 -34.142822265625 4093.8568115234375 0.0H3953.285400390625Q3952.142578125 -32.28582763671875 3950.999755859375 -67.8572998046875Q3949.85693359375 -103.42877197265625 3949.2855224609375 -142.4288330078125H3939.28564453125Q3932.4285888671875 -99.42877197265625 3906.6428833007812 -63.785858154296875Q3880.857177734375 -28.1429443359375 3840.5 -7.07147216796875Q3800.142822265625 14.0 3748.1427612304688 14.0ZM3816.8569946289062 -102.857177734375Q3834.1427001953125 -102.857177734375 3853.3569946289062 -109.357177734375Q3872.5712890625 -115.857177734375 3889.928436279297 -129.85720825195312Q3907.2855834960938 -143.85723876953125 3919.1427001953125 -167.50018310546875Q3930.9998168945312 -191.14312744140625 3933.2854614257812 -224.7147216796875L3932.7140502929688 -264.7142333984375L3957.9998168945312 -265.4285888671875Q3946.8570556640625 -252.71429443359375 3927.0713806152344 -245.0Q3907.2857055664062 -237.28570556640625 3884.142852783203 -232.92855834960938Q3861.0 -228.5714111328125 3837.7857055664062 -224.0714111328125Q3814.5714111328125 -219.5714111328125 3795.285675048828 -212.21426391601562Q3775.9999389648438 -204.85711669921875 3764.2142028808594 -192.49996948242188Q3752.428466796875 -180.142822265625 3752.428466796875 -158.42852783203125Q3752.428466796875 -131.85711669921875 3771.071319580078 -117.35714721679688Q3789.7141723632812 -102.857177734375 3816.8569946289062 -102.857177734375Z"/><circle cx="124" cy="-693" r="75" fill="url(#imgradd)"/></svg>